<svg xmlns="http://www.w3.org/2000/svg" id="Logo_Schutzraum" width="150" height="68" data-name="Logo+Schutzraum" viewBox="0 0 150 68">
    <defs>
        <style>
            .cls-1{fill:none}.cls-2{fill:#fff}
        </style>
    </defs>
    <path id="Schutzraum" d="M0 0h150v68H0z" class="cls-1"/>
    <g id="Logo" transform="translate(17 17.058)">
        <path id="Path_1" d="M51.49 39.321c-.886-3.8-2.568-6.168-6.333-6.168h-7.308v13.385h4.3c2.7 0 4.385-1.206 4.783-4.742h.709V52.5h-.709c-.4-3.536-2.082-4.743-4.783-4.743h-4.3v14.001h7.042c3.765 0 5.978-1.836 7.13-6.168h.708l-.443 7.339h-22.94V61.89c3.056-.221 3.41-.309 3.41-1.945V34.966c0-1.636-.354-1.725-3.41-1.945v-1.038h22.631l.222 7.338z" class="cls-2" data-name="Path 1" transform="translate(-29.346 -30.455)"/>
        <path id="Path_2" d="M74.931 61.89c3.056-.221 3.41-.309 3.41-1.945V34.966c0-1.636-.354-1.725-3.41-1.945v-1.038h12.932c6.644 0 10.187 3.094 10.187 7.515 0 3.537-2.968 6.5-8.282 7.339v.088c7.263.929 9.611 4.42 9.611 7.825 0 4.863-3.543 8.179-10.186 8.179H74.931zm11.56-15.529c4.384 0 6.333-2.532 6.333-6.422 0-4.023-1.55-6.786-5.8-6.786h-3.59v13.209zm1.329 15.4c5 0 6.156-3.471 6.156-7.229 0-4.111-2.126-6.908-7.22-6.908h-3.322v14.134z" class="cls-2" data-name="Path 2" transform="translate(-48.45 -30.455)"/>
        <path id="Path_3" d="M135.908 31.983c6.645 0 10.408 3.537 10.408 8.4 0 4.421-3.144 9.372-12.445 9.372h-3.322v10.19c0 1.636.355 1.725 3.411 1.945v1.038h-11.914V61.89c3.056-.221 3.41-.309 3.41-2.275v-24.98c0-1.305-.355-1.394-3.41-1.614v-1.038zm-5.359 16.556h3.145c5.714 0 7.219-3.825 7.219-7.716 0-3.535-1.417-7.67-6.244-7.67h-4.12z" class="cls-2" data-name="Path 3" transform="translate(-68.196 -30.455)"/>
        <g id="kreise" transform="translate(81.343)">
            <path id="Path_4" d="M185.582 62.517a13.835 13.835 0 1 0-9.8-16.943 13.861 13.861 0 0 0 9.8 16.943zm6.771-25.217a12.279 12.279 0 1 1-15.065 8.681 12.275 12.275 0 0 1 15.065-8.681z" class="cls-2" data-name="Path 4" transform="translate(-171.84 -31.858)"/>
            <path id="Path_5" d="M182.571 61.843a15.738 15.738 0 1 1 19.309-11.128l1.506.4a17.322 17.322 0 1 0-21.218 12.228z" class="cls-2" data-name="Path 5" transform="translate(-169.323 -29.346)"/>
            <path id="Path_6" d="M193.9 42.85a8.819 8.819 0 1 1-6.252 15.05l-1.1 1.1a10.385 10.385 0 1 0 7.352-17.71z" class="cls-2" data-name="Path 6" transform="translate(-176.568 -34.373)"/>
        </g>
    </g>
</svg>
